<svg viewBox="-40 0 512 512" xmlns="http://www.w3.org/2000/svg"><path d="m402.339844 504.5h-372.398438c-12.394531 0-22.441406-10.046875-22.441406-22.441406v-452.117188c0-12.394531 10.046875-22.441406 22.441406-22.441406h372.398438c12.394531 0 22.441406 10.046875 22.441406 22.441406v452.117188c0 12.394531-10.046875 22.441406-22.441406 22.441406zm0 0" fill="#596674"/><path d="m37.5 482.058594v-452.117188c0-12.394531 10.046875-22.441406 22.441406-22.441406h-30c-12.394531 0-22.441406 10.046875-22.441406 22.441406v452.117188c0 12.394531 10.046875 22.441406 22.441406 22.441406h30c-12.394531 0-22.441406-10.046875-22.441406-22.441406zm0 0" fill="#565c62"/><path d="m57.5 79.941406v64.117188c0 12.394531 10.046875 22.441406 22.441406 22.441406h272.398438c12.394531 0 22.441406-10.046875 22.441406-22.441406v-64.117188c0-12.394531-10.046875-22.441406-22.441406-22.441406h-272.398438c-12.394531 0-22.441406 10.046875-22.441406 22.441406zm0 0" fill="#85cdea"/><path d="m87.5 144.058594v-64.117188c0-12.394531 10.046875-22.441406 22.441406-22.441406h-30c-12.394531 0-22.441406 10.046875-22.441406 22.441406v64.117188c0 12.394531 10.046875 22.441406 22.441406 22.441406h30c-12.394531 0-22.441406-10.046875-22.441406-22.441406zm0 0" fill="#78b7d2"/><path d="m79.941406 201.5h96.257813c12.394531 0 22.441406 10.046875 22.441406 22.441406v64.117188c0 12.394531-10.046875 22.441406-22.441406 22.441406h-96.257813c-12.394531 0-22.441406-10.046875-22.441406-22.441406v-64.117188c0-12.394531 10.046875-22.441406 22.441406-22.441406zm0 0" fill="#d9d7d8"/><path d="m87.5 288.058594v-64.117188c0-12.394531 10.046875-22.441406 22.441406-22.441406h-30c-12.394531 0-22.441406 10.046875-22.441406 22.441406v64.117188c0 12.394531 10.046875 22.441406 22.441406 22.441406h30c-12.394531 0-22.441406-10.046875-22.441406-22.441406zm0 0" fill="#bab8b9"/><path d="m256.082031 201.5h96.257813c12.394531 0 22.441406 10.046875 22.441406 22.441406v64.117188c0 12.394531-10.046875 22.441406-22.441406 22.441406h-96.257813c-12.394531 0-22.441406-10.046875-22.441406-22.441406v-64.117188c0-12.394531 10.046875-22.441406 22.441406-22.441406zm0 0" fill="#fadc60"/><path d="m263.640625 288.058594v-64.117188c0-12.394531 10.046875-22.441406 22.441406-22.441406h-30c-12.394531 0-22.441406 10.046875-22.441406 22.441406v64.117188c0 12.394531 10.046875 22.441406 22.441406 22.441406h30c-12.394531 0-22.441406-10.046875-22.441406-22.441406zm0 0" fill="#e6cb59"/><path d="m79.941406 345.5h96.257813c12.394531 0 22.441406 10.046875 22.441406 22.441406v64.117188c0 12.394531-10.046875 22.441406-22.441406 22.441406h-96.257813c-12.394531 0-22.441406-10.046875-22.441406-22.441406v-64.117188c0-12.394531 10.046875-22.441406 22.441406-22.441406zm0 0" fill="#58b78c"/><path d="m87.5 432.058594v-64.117188c0-12.394531 10.046875-22.441406 22.441406-22.441406h-30c-12.394531 0-22.441406 10.046875-22.441406 22.441406v64.117188c0 12.394531 10.046875 22.441406 22.441406 22.441406h30c-12.394531 0-22.441406-10.046875-22.441406-22.441406zm0 0" fill="#46926f"/><path d="m256.082031 345.5h96.257813c12.394531 0 22.441406 10.046875 22.441406 22.441406v64.117188c0 12.394531-10.046875 22.441406-22.441406 22.441406h-96.257813c-12.394531 0-22.441406-10.046875-22.441406-22.441406v-64.117188c0-12.394531 10.046875-22.441406 22.441406-22.441406zm0 0" fill="#fd6f71"/><path d="m263.640625 432.058594v-64.117188c0-12.394531 10.046875-22.441406 22.441406-22.441406h-30c-12.394531 0-22.441406 10.046875-22.441406 22.441406v64.117188c0 12.394531 10.046875 22.441406 22.441406 22.441406h30c-12.394531 0-22.441406-10.046875-22.441406-22.441406zm0 0" fill="#e36465"/><path d="m286.367188 132.160156h-11.496094c-4.140625 0-7.5-3.355468-7.5-7.5 0-4.144531 3.359375-7.5 7.5-7.5h11.496094c4.144531 0 7.5 3.355469 7.5 7.5 0 4.144532-3.355469 7.5-7.5 7.5zm0 0" fill="#fd6f71"/><path d="m157.410156 132.160156h-11.496094c-4.144531 0-7.5-3.355468-7.5-7.5 0-4.144531 3.355469-7.5 7.5-7.5h11.496094c4.140625 0 7.5 3.355469 7.5 7.5 0 4.144532-3.359375 7.5-7.5 7.5zm0 0" fill="#fd6f71"/><path d="m402.339844 0h-372.398438c-16.507812 0-29.941406 13.433594-29.941406 29.941406v452.117188c0 16.511718 13.433594 29.941406 29.941406 29.941406h372.398438c16.507812 0 29.9375-13.433594 29.9375-29.941406v-452.117188c.003906-16.507812-13.429688-29.941406-29.9375-29.941406zm14.941406 482.058594c0 8.238281-6.703125 14.941406-14.941406 14.941406h-372.398438c-8.238281 0-14.941406-6.703125-14.941406-14.941406v-452.117188c0-8.238281 6.703125-14.941406 14.941406-14.941406h372.398438c8.238281 0 14.9375 6.703125 14.9375 14.941406v452.117188zm0 0"/><path d="m352.339844 50h-272.398438c-16.511718 0-29.941406 13.433594-29.941406 29.941406v64.117188c0 16.507812 13.433594 29.941406 29.941406 29.941406h272.398438c16.507812 0 29.9375-13.433594 29.9375-29.941406v-64.117188c.003906-16.507812-13.429688-29.941406-29.9375-29.941406zm14.941406 94.058594c0 8.238281-6.703125 14.941406-14.941406 14.941406h-272.398438c-8.238281 0-14.941406-6.703125-14.941406-14.941406v-64.117188c0-8.238281 6.703125-14.941406 14.941406-14.941406h272.398438c8.238281 0 14.9375 6.703125 14.9375 14.941406v64.117188zm0 0"/><path d="m176.199219 194h-96.257813c-16.511718 0-29.941406 13.433594-29.941406 29.941406v64.117188c0 16.507812 13.433594 29.941406 29.941406 29.941406h96.257813c16.511719 0 29.941406-13.433594 29.941406-29.941406v-64.117188c0-16.507812-13.433594-29.941406-29.941406-29.941406zm14.941406 94.058594c0 8.238281-6.703125 14.941406-14.941406 14.941406h-96.257813c-8.238281 0-14.941406-6.703125-14.941406-14.941406v-64.117188c0-8.238281 6.703125-14.941406 14.941406-14.941406h96.257813c8.238281 0 14.941406 6.703125 14.941406 14.941406zm0 0"/><path d="m352.339844 194h-1.128906c-4.144532 0-7.5 3.355469-7.5 7.5s3.355468 7.5 7.5 7.5h1.128906c8.238281 0 14.9375 6.703125 14.9375 14.941406v64.117188c0 8.238281-6.699219 14.941406-14.9375 14.941406h-96.261719c-8.234375 0-14.9375-6.703125-14.9375-14.941406v-64.117188c0-8.238281 6.703125-14.941406 14.9375-14.941406h67.132813c4.140624 0 7.5-3.355469 7.5-7.5s-3.359376-7.5-7.5-7.5h-67.132813c-16.507813 0-29.9375 13.433594-29.9375 29.941406v64.117188c0 16.507812 13.429687 29.941406 29.9375 29.941406h96.261719c16.507812 0 29.9375-13.433594 29.9375-29.941406v-64.117188c.003906-16.507812-13.429688-29.941406-29.9375-29.941406zm0 0"/><path d="m176.199219 338h-34.128907c-4.140624 0-7.5 3.355469-7.5 7.5s3.359376 7.5 7.5 7.5h34.128907c8.238281 0 14.941406 6.703125 14.941406 14.941406v64.117188c0 8.238281-6.703125 14.941406-14.941406 14.941406h-96.257813c-8.238281 0-14.941406-6.703125-14.941406-14.941406v-64.117188c0-8.238281 6.703125-14.941406 14.941406-14.941406h34.695313c4.140625 0 7.5-3.355469 7.5-7.5s-3.359375-7.5-7.5-7.5h-34.695313c-16.511718 0-29.941406 13.433594-29.941406 29.941406v64.117188c0 16.507812 13.433594 29.941406 29.941406 29.941406h96.257813c16.511719 0 29.941406-13.433594 29.941406-29.941406v-64.117188c0-16.507812-13.433594-29.941406-29.941406-29.941406zm0 0"/><path d="m352.339844 338h-96.261719c-16.507813 0-29.9375 13.433594-29.9375 29.941406v64.117188c0 16.507812 13.429687 29.941406 29.9375 29.941406h96.261719c16.507812 0 29.9375-13.433594 29.9375-29.941406v-64.117188c.003906-16.507812-13.429688-29.941406-29.9375-29.941406zm14.941406 94.058594c0 8.238281-6.703125 14.941406-14.941406 14.941406h-96.261719c-8.234375 0-14.9375-6.703125-14.9375-14.941406v-64.117188c0-8.238281 6.703125-14.941406 14.9375-14.941406h96.261719c8.238281 0 14.9375 6.703125 14.9375 14.941406v64.117188zm0 0"/><path d="m236.847656 116.242188c-3.59375-2.0625-8.175781-.828126-10.242187 2.765624-2.152344 3.738282-6.160157 6.0625-10.464844 6.0625s-8.316406-2.324218-10.464844-6.0625c-2.0625-3.59375-6.648437-4.832031-10.242187-2.765624-3.589844 2.0625-4.828125 6.648437-2.761719 10.238281 4.816406 8.382812 13.808594 13.585937 23.46875 13.585937 9.65625 0 18.648437-5.203125 23.46875-13.582031 2.0625-3.589844.828125-8.175781-2.761719-10.242187zm0 0"/><path d="m280.617188 83.933594c-4.140626 0-7.5 3.355468-7.5 7.5v11.496094c0 4.140624 3.359374 7.5 7.5 7.5 4.144531 0 7.5-3.359376 7.5-7.5v-11.496094c0-4.144532-3.355469-7.5-7.5-7.5zm0 0"/><path d="m151.660156 83.933594c-4.140625 0-7.5 3.355468-7.5 7.5v11.496094c0 4.140624 3.359375 7.5 7.5 7.5 4.144532 0 7.5-3.359376 7.5-7.5v-11.496094c0-4.144532-3.355468-7.5-7.5-7.5zm0 0"/><path d="m147.070312 248.5h-11.5v-11.5c0-4.140625-3.355468-7.5-7.5-7.5-4.144531 0-7.5 3.359375-7.5 7.5v11.5h-11.5c-4.140624 0-7.5 3.355469-7.5 7.5s3.359376 7.5 7.5 7.5h11.5v11.5c0 4.140625 3.355469 7.5 7.5 7.5 4.144532 0 7.5-3.359375 7.5-7.5v-11.5h11.5c4.140626 0 7.5-3.355469 7.5-7.5s-3.359374-7.5-7.5-7.5zm0 0"/><path d="m323.207031 248.5h-37.996093c-4.144532 0-7.5 3.355469-7.5 7.5s3.355468 7.5 7.5 7.5h37.996093c4.144531 0 7.5-3.355469 7.5-7.5s-3.355469-7.5-7.5-7.5zm0 0"/><path d="m146.808594 381.261719c-2.929688-2.925781-7.679688-2.929688-10.609375 0l-8.128907 8.132812-8.128906-8.132812c-2.929687-2.925781-7.679687-2.929688-10.605468 0-2.929688 2.929687-2.929688 7.679687 0 10.605469l8.128906 8.132812-8.128906 8.132812c-2.929688 2.929688-2.929688 7.675782 0 10.605469 1.464843 1.464844 3.382812 2.195313 5.300781 2.195313 1.921875 0 3.839843-.730469 5.304687-2.195313l8.128906-8.132812 8.132813 8.132812c1.464844 1.464844 3.382813 2.195313 5.304687 2.195313 1.917969 0 3.835938-.730469 5.300782-2.195313 2.929687-2.929687 2.929687-7.679687 0-10.605469l-8.132813-8.132812 8.132813-8.132812c2.929687-2.929688 2.929687-7.675782 0-10.605469zm0 0"/><path d="m323.207031 379.066406h-37.996093c-4.144532 0-7.5 3.355469-7.5 7.5 0 4.140625 3.355468 7.5 7.5 7.5h37.996093c4.144531 0 7.5-3.359375 7.5-7.5 0-4.144531-3.355469-7.5-7.5-7.5zm0 0"/><path d="m323.207031 405.933594h-37.996093c-4.144532 0-7.5 3.359375-7.5 7.5 0 4.144531 3.355468 7.5 7.5 7.5h37.996093c4.144531 0 7.5-3.355469 7.5-7.5 0-4.140625-3.355469-7.5-7.5-7.5zm0 0"/></svg>